# Blender 5.2.0 LTS
# www.blender.org
mtllib tree.mtl
o Cylinder
v -0.105559 -1.000000 -0.354760
v -0.041782 3.439735 -0.140422
v 0.304778 -1.000000 -0.210019
v 0.120638 3.439735 -0.083130
v 0.293922 -1.000000 0.224961
v 0.116341 3.439735 0.089045
v -0.123124 -1.000000 0.349053
v -0.048735 3.439735 0.138163
v -0.370017 -1.000000 -0.009235
v -0.146461 3.439735 -0.003655
v -0.105559 0.000000 -0.354760
v 1.282707 0.367240 -0.883900
v 1.237017 0.367240 0.946787
v -0.518188 0.367240 1.469046
v -1.557275 0.367240 -0.038866
v -0.370017 0.000000 -0.009235
v -0.444261 0.367240 -1.493067
v -0.123124 0.000000 0.349053
v 0.293922 0.000000 0.224961
v 0.304778 0.000000 -0.210019
v 1.298350 0.704453 -0.894679
v -0.449678 0.704453 -1.511275
v 1.252103 0.704453 0.958333
v -0.524508 0.704453 1.486962
v -1.576266 0.704453 -0.039340
v 0.828450 1.364098 -0.570876
v -0.286930 1.364098 -0.964313
v 0.798941 1.364098 0.611492
v -0.334677 1.364098 0.948799
v -1.005783 1.364098 -0.025102
v 0.544319 2.385311 -0.375085
v -0.188523 2.385311 -0.633586
v 0.524930 2.385311 0.401771
v -0.219894 2.385311 0.623393
v -0.660833 2.385311 -0.016493
v 0.262533 3.143723 -0.180909
v -0.090927 3.143723 -0.305588
v 0.253182 3.143723 0.193780
v -0.106058 3.143723 0.300672
v -0.318730 3.143723 -0.007955
vn 0.3323 -0.0455 -0.9421
vn 0.9987 -0.0455 0.0249
vn 0.2849 -0.0455 0.9575
vn -0.0000 1.0000 -0.0000
vn -0.8226 -0.0455 0.5668
vn -0.7933 -0.0455 -0.6072
vn -0.0000 -1.0000 -0.0000
vn -0.7941 -0.0000 -0.6078
vn -0.8234 -0.0000 0.5674
vn 0.2852 -0.0000 0.9585
vn 0.9997 -0.0000 0.0250
vn 0.3326 -0.0000 -0.9431
vn -0.2835 -0.9341 -0.2170
vn -0.2940 -0.9341 0.2026
vn 0.1018 -0.9341 0.3422
vn 0.3569 -0.9341 0.0089
vn 0.1188 -0.9341 -0.3367
vn 0.2725 0.5734 -0.7726
vn 0.8190 0.5734 0.0204
vn 0.2337 0.5734 0.7853
vn -0.6746 0.5734 0.4649
vn -0.6506 0.5734 -0.4979
vn 0.3209 0.2637 -0.9097
vn 0.9643 0.2637 0.0241
vn 0.2751 0.2637 0.9245
vn -0.7943 0.2637 0.5473
vn -0.7660 0.2637 -0.5863
vn 0.3125 0.3429 -0.8859
vn 0.9391 0.3429 0.0234
vn 0.2679 0.3429 0.9004
vn -0.7735 0.3429 0.5330
vn -0.7460 0.3429 -0.5709
vn 0.3009 0.4261 -0.8532
vn 0.9044 0.4261 0.0226
vn 0.2580 0.4261 0.8671
vn -0.7449 0.4261 0.5133
vn -0.7184 0.4261 -0.5499
vt 1.000000 0.859656
vt 1.000000 1.000000
vt 0.800000 1.000000
vt 0.800000 0.859656
vt 0.600000 1.000000
vt 0.600000 0.859656
vt 0.400000 1.000000
vt 0.400000 0.859656
vt 0.271208 0.256891
vt 0.250000 0.272300
vt 0.228792 0.256891
vt 0.236892 0.231959
vt 0.263108 0.231959
vt 0.200000 1.000000
vt 0.200000 0.859656
vt 0.000000 1.000000
vt 0.000000 0.859656
vt 0.750000 0.490000
vt 0.978254 0.324164
vt 0.891068 0.055836
vt 0.608932 0.055836
vt 0.521746 0.324164
vt 0.200000 0.500000
vt 0.200000 0.750000
vt 0.000000 0.750000
vt 0.000000 0.500000
vt 0.400000 0.500000
vt 0.400000 0.750000
vt 0.600000 0.500000
vt 0.600000 0.750000
vt 0.800000 0.500000
vt 0.800000 0.750000
vt 1.000000 0.500000
vt 1.000000 0.750000
vt 0.250000 0.403139
vt 0.395644 0.297323
vt 0.478254 0.324164
vt 0.250000 0.490000
vt 0.340013 0.126108
vt 0.391068 0.055836
vt 0.159987 0.126108
vt 0.108932 0.055836
vt 0.104356 0.297323
vt 0.021746 0.324164
vt 0.250000 0.350617
vt 0.345693 0.281092
vt 0.309141 0.168599
vt 0.190859 0.168599
vt 0.154307 0.281092
vt 0.250000 0.298529
vt 0.296154 0.264996
vt 0.278525 0.210739
vt 0.221475 0.210739
vt 0.203846 0.264996
s 0
usemtl Material.001
f 1/18/7 3/19/7 5/20/7 7/21/7 9/22/7
f 9/23/8 16/24/8 11/25/8 1/26/8
f 7/27/9 18/28/9 16/24/9 9/23/9
f 5/29/10 19/30/10 18/28/10 7/27/10
f 3/31/11 20/32/11 19/30/11 5/29/11
f 1/33/12 11/34/12 20/32/12 3/31/12
usemtl Material.002
f 17/1/1 22/2/1 21/3/1 12/4/1
f 12/4/2 21/3/2 23/5/2 13/6/2
f 13/6/3 23/5/3 24/7/3 14/8/3
f 4/9/4 2/10/4 10/11/4 8/12/4 6/13/4
f 14/8/5 24/7/5 25/14/5 15/15/5
f 15/15/6 25/14/6 22/16/6 17/17/6
f 15/15/13 17/17/13 11/25/13 16/24/13
f 14/8/14 15/15/14 16/24/14 18/28/14
f 13/6/15 14/8/15 18/28/15 19/30/15
f 12/4/16 13/6/16 19/30/16 20/32/16
f 17/1/17 12/4/17 20/32/17 11/34/17
f 27/35/18 26/36/18 21/37/18 22/38/18
f 26/36/19 28/39/19 23/40/19 21/37/19
f 28/39/20 29/41/20 24/42/20 23/40/20
f 29/41/21 30/43/21 25/44/21 24/42/21
f 30/43/22 27/35/22 22/38/22 25/44/22
f 32/45/23 31/46/23 26/36/23 27/35/23
f 31/46/24 33/47/24 28/39/24 26/36/24
f 33/47/25 34/48/25 29/41/25 28/39/25
f 34/48/26 35/49/26 30/43/26 29/41/26
f 35/49/27 32/45/27 27/35/27 30/43/27
f 37/50/28 36/51/28 31/46/28 32/45/28
f 36/51/29 38/52/29 33/47/29 31/46/29
f 38/52/30 39/53/30 34/48/30 33/47/30
f 39/53/31 40/54/31 35/49/31 34/48/31
f 40/54/32 37/50/32 32/45/32 35/49/32
f 2/10/33 4/9/33 36/51/33 37/50/33
f 4/9/34 6/13/34 38/52/34 36/51/34
f 6/13/35 8/12/35 39/53/35 38/52/35
f 8/12/36 10/11/36 40/54/36 39/53/36
f 10/11/37 2/10/37 37/50/37 40/54/37
